<?xml version="1.0" encoding="UTF-8" standalone="no"?>
<!-- Created with Inkscape (http://www.inkscape.org/) -->

<svg
   width="500"
   height="130"
   viewBox="0 0 132.29166 34.395833"
   version="1.1"
   id="svg5"
   inkscape:version="1.2 (dc2aedaf03, 2022-05-15)"
   sodipodi:docname="thinkbig-logo.svg"
   xmlns:inkscape="http://www.inkscape.org/namespaces/inkscape"
   xmlns:sodipodi="http://sodipodi.sourceforge.net/DTD/sodipodi-0.dtd"
   xmlns="http://www.w3.org/2000/svg"
   xmlns:svg="http://www.w3.org/2000/svg">
  <sodipodi:namedview
     id="namedview7"
     pagecolor="#ffffff"
     bordercolor="#666666"
     borderopacity="1.0"
     inkscape:showpageshadow="2"
     inkscape:pageopacity="0.0"
     inkscape:pagecheckerboard="true"
     inkscape:deskcolor="#d1d1d1"
     inkscape:document-units="px"
     showgrid="false"
     inkscape:zoom="2.8237469"
     inkscape:cx="245.59567"
     inkscape:cy="-64.276299"
     inkscape:window-width="2421"
     inkscape:window-height="1236"
     inkscape:window-x="655"
     inkscape:window-y="606"
     inkscape:window-maximized="0"
     inkscape:current-layer="layer1" />
  <defs
     id="defs2">
    <inkscape:path-effect
       effect="perspective-envelope"
       up_left_point="-1.0715736e-07,20.313286"
       up_right_point="132.29156,20.313286"
       down_left_point="-1.0715736e-07,54.203627"
       down_right_point="132.29156,54.203627"
       id="path-effect1832"
       is_visible="true"
       lpeversion="1"
       deform_type="perspective"
       horizontal_mirror="true"
       vertical_mirror="false"
       overflow_perspective="false" />
    <inkscape:path-effect
       effect="fillet_chamfer"
       id="path-effect1828"
       is_visible="true"
       lpeversion="1"
       nodesatellites_param="F,1,0,1,0,0,0,1 @ F,1,0,1,0,0,0,1 @ F,1,0,1,0,0,0,1 @ F,1,0,1,0,0,0,1 @ F,1,0,1,0,0,0,1 @ F,1,0,1,0,0,0,1 @ F,1,0,1,0,0,0,1 @ F,1,0,1,0,0,0,1 @ F,1,0,1,0,0,0,1 @ F,1,0,1,0,0,0,1 @ F,1,0,1,0,0,0,1 @ F,1,0,1,0,0,0,1 @ F,1,0,1,0,0,0,1 @ F,1,0,1,0,0,0,1 @ F,1,0,1,0,0,0,1 @ F,1,0,1,0,0,0,1 @ F,1,0,1,0,0,0,1 @ F,1,0,1,0,0,0,1 @ F,1,0,1,0,0,0,1 @ F,1,0,1,0,0,0,1 @ F,1,0,1,0,0,0,1 @ F,1,0,1,0,0,0,1 @ F,1,0,1,0,0,0,1 @ F,1,0,1,0,0,0,1 @ F,1,0,1,0,0,0,1 @ F,1,0,1,0,0,0,1 @ F,1,0,1,0,0,0,1 @ F,1,0,1,0,0,0,1 @ F,1,0,1,0,0,0,1 @ F,1,0,1,0,0,0,1 @ F,1,0,1,0,0,0,1 @ F,1,0,1,0,0,0,1 @ F,1,0,1,0,0,0,1 @ F,1,0,1,0,0.16411495,0,1 @ F,1,0,1,0,0.33782529,0,1 @ F,1,0,1,0,0,0,1 @ F,1,0,1,0,0,0,1 @ F,1,0,1,0,0,0,1 @ F,1,0,1,0,0,0,1 @ F,1,0,1,0,0,0,1 @ F,1,0,1,0,0,0,1 @ F,1,0,1,0,0,0,1 @ F,1,0,1,0,0,0,1 @ F,1,0,1,0,0,0,1 @ F,1,0,1,0,0,0,1 @ F,1,0,1,0,0,0,1 @ F,1,0,1,0,0,0,1 @ F,1,0,1,0,0,0,1 @ F,1,0,1,0,0,0,1 @ F,1,0,1,0,0,0,1 @ F,1,0,1,0,0,0,1 @ F,1,0,1,0,0,0,1 @ F,1,0,1,0,0,0,1 @ F,1,0,1,0,0,0,1 | F,1,0,1,0,0,0,1 @ F,1,0,1,0,0,0,1 @ F,1,0,1,0,0,0,1 @ F,1,0,1,0,0,0,1 @ F,1,0,1,0,0,0,1 @ F,1,0,1,0,0,0,1 @ F,1,0,1,0,0,0,1 @ F,1,0,1,0,0,0,1 @ F,1,0,1,0,0,0,1 @ F,1,0,1,0,0,0,1 @ F,1,0,1,0,0,0,1 @ F,1,0,1,0,0,0,1"
       unit="px"
       method="auto"
       mode="F"
       radius="10"
       chamfer_steps="1"
       flexible="true"
       use_knot_distance="true"
       apply_no_radius="true"
       apply_with_radius="true"
       only_selected="true"
       hide_knots="false" />
    <inkscape:path-effect
       effect="fillet_chamfer"
       id="path-effect1824"
       is_visible="true"
       lpeversion="1"
       nodesatellites_param="F,1,0,1,0,0.04,0,1 @ F,1,0,1,0,0.10512075,0,1 @ F,1,0,1,0,0.04,0,1 @ F,1,0,1,0,0.23038547,0,1 @ F,1,0,1,0,0,0,1"
       unit="px"
       method="auto"
       mode="F"
       radius="4"
       chamfer_steps="1"
       flexible="true"
       use_knot_distance="true"
       apply_no_radius="true"
       apply_with_radius="true"
       only_selected="true"
       hide_knots="false" />
    <inkscape:path-effect
       effect="fillet_chamfer"
       id="path-effect1820"
       is_visible="true"
       lpeversion="1"
       nodesatellites_param="F,1,0,1,0,0.029947093,0,1 @ F,1,0,1,0,0.072568635,0,1 @ F,1,0,1,0,0,0,1 @ F,1,0,1,0,0,0,1 @ F,1,0,1,0,0,0,1 @ F,1,0,1,0,0,0,1 @ F,1,0,1,0,0,0,1 @ F,1,0,1,0,0,0,1 @ F,1,0,1,0,0,0,1 @ F,1,0,1,0,0,0,1 @ F,1,0,1,0,0,0,1 @ F,1,0,1,0,0,0,1 @ F,1,0,1,0,0,0,1 @ F,1,0,1,0,0,0,1 @ F,1,0,1,0,0,0,1 | F,1,0,1,0,0,0,1 @ F,1,0,1,0,0,0,1 @ F,1,0,1,0,0,0,1 @ F,1,0,1,0,0,0,1 @ F,1,0,1,0,0,0,1 @ F,1,0,1,0,0,0,1 @ F,1,0,1,0,0,0,1 @ F,1,0,1,0,0,0,1 @ F,1,0,1,0,0,0,1 | F,1,0,1,0,0,0,1 @ F,1,0,1,0,0,0,1 @ F,1,0,1,0,0,0,1 @ F,1,0,1,0,0,0,1 @ F,1,0,1,0,0,0,1 @ F,1,0,1,0,0,0,1 @ F,1,0,1,0,0,0,1"
       unit="px"
       method="auto"
       mode="F"
       radius="6"
       chamfer_steps="1"
       flexible="true"
       use_knot_distance="true"
       apply_no_radius="true"
       apply_with_radius="true"
       only_selected="true"
       hide_knots="false" />
    <inkscape:path-effect
       effect="fillet_chamfer"
       id="path-effect1816"
       is_visible="true"
       lpeversion="1"
       nodesatellites_param="F,1,0,1,0,0.031816036,0,1 @ F,1,0,1,0,0.11,0,1 @ F,1,0,1,0,0.050890586,0,1 @ F,1,0,1,0,0,0,1 @ F,1,0,1,0,0.11,0,1 @ F,1,0,1,0,0.080218756,0,1 @ F,1,0,1,0,0.075547252,0,1 @ F,1,0,1,0,0,0,1 @ F,1,0,1,0,0.11,0,1 @ F,1,0,1,0,0.076907641,0,1 @ F,1,0,1,0,0.30192402,0,1 @ F,1,0,1,0,0,0,1 @ F,1,0,1,0,0.11,0,1"
       unit="px"
       method="auto"
       mode="F"
       radius="11"
       chamfer_steps="1"
       flexible="true"
       use_knot_distance="true"
       apply_no_radius="true"
       apply_with_radius="true"
       only_selected="true"
       hide_knots="false" />
    <inkscape:path-effect
       effect="fillet_chamfer"
       id="path-effect1812"
       is_visible="true"
       lpeversion="1"
       nodesatellites_param="F,1,0,1,0,0.032606904,0,1 @ F,1,0,1,0,0.09,0,1 @ F,1,0,1,0,0.31149591,0,1 @ F,1,0,1,0,0,0,1 @ F,1,0,1,0,0,0,1 @ F,1,0,1,0,0,0,1 @ F,1,0,1,0,0,0,1 @ F,1,0,1,0,0,0,1 @ F,1,0,1,0,0,0,1 @ F,1,0,1,0,0.09,0,1 @ F,1,0,1,0,0.054636986,0,1 @ F,1,0,1,0,0,0,1 @ F,1,0,1,0,0,0,1 @ F,1,0,1,0,0,0,1 @ F,1,0,1,0,0,0,1 @ F,1,0,1,0,0,0,1 @ F,1,0,1,0,0,0,1 @ F,1,0,1,0,0,0,1 @ F,1,0,1,0,0.09,0,1"
       unit="px"
       method="auto"
       mode="F"
       radius="9"
       chamfer_steps="1"
       flexible="true"
       use_knot_distance="true"
       apply_no_radius="true"
       apply_with_radius="true"
       only_selected="true"
       hide_knots="false" />
    <inkscape:path-effect
       effect="fillet_chamfer"
       id="path-effect1808"
       is_visible="true"
       lpeversion="1"
       nodesatellites_param="F,1,0,1,0,0.04,0,1 @ F,1,0,1,0,0.10512075,0,1 @ F,1,0,1,0,0.04,0,1 @ F,1,0,1,0,0.23038547,0,1 @ F,1,0,1,0,0,0,1"
       unit="px"
       method="auto"
       mode="F"
       radius="4"
       chamfer_steps="1"
       flexible="true"
       use_knot_distance="true"
       apply_no_radius="true"
       apply_with_radius="true"
       only_selected="true"
       hide_knots="false" />
    <inkscape:path-effect
       effect="fillet_chamfer"
       id="path-effect1804"
       is_visible="true"
       lpeversion="1"
       nodesatellites_param="F,1,0,1,0,0.029035622,0,1 @ F,1,0,1,0,0.12027072,0,1 @ F,1,0,1,0,0.067017839,0,1 @ F,1,0,1,0,0,0,1 @ F,1,0,1,0,0,0,1 @ F,1,0,1,0,0,0,1 @ F,1,0,1,0,0,0,1 @ F,1,0,1,0,0,0,1 @ F,1,0,1,0,0,0,1 @ F,1,0,1,0,0.09,0,1 @ F,1,0,1,0,0.071701047,0,1 @ F,1,0,1,0,0,0,1 @ F,1,0,1,0,0,0,1 @ F,1,0,1,0,0,0,1 @ F,1,0,1,0,0,0,1 @ F,1,0,1,0,0,0,1 @ F,1,0,1,0,0,0,1 @ F,1,0,1,0,0,0,1 @ F,1,0,1,0,0.09,0,1"
       unit="px"
       method="auto"
       mode="F"
       radius="9"
       chamfer_steps="1"
       flexible="true"
       use_knot_distance="true"
       apply_no_radius="true"
       apply_with_radius="true"
       only_selected="true"
       hide_knots="false" />
    <inkscape:path-effect
       effect="fillet_chamfer"
       id="path-effect1800"
       is_visible="true"
       lpeversion="1"
       nodesatellites_param="F,1,0,1,0,0,0,1 @ F,1,0,1,0,0,0,1 @ F,1,0,1,0,0,0,1 @ F,1,0,1,0,0,0,1 @ F,1,0,1,0,0,0,1 @ F,1,1,1,0,0.11,0,1 @ F,1,1,1,0,0.11,0,1 @ F,1,0,1,0,0,0,1 @ F,1,1,1,0,0.11,0,1 @ F,1,1,1,0,0.11,0,1 @ F,1,0,1,0,0,0,1 @ F,1,1,1,0,0.11,0,1 @ F,1,1,1,0,0.11,0,1 @ F,1,0,1,0,0,0,1 @ F,1,0,1,0,0,0,1 @ F,1,0,1,0,0,0,1 @ F,1,0,1,0,0,0,1 @ F,1,0,1,0,0,0,1 @ F,1,0,1,0,0,0,1 @ F,1,1,1,0,0.11,0,1 @ F,1,1,1,0,0.11,0,1"
       unit="px"
       method="auto"
       mode="F"
       radius="11"
       chamfer_steps="1"
       flexible="true"
       use_knot_distance="true"
       apply_no_radius="true"
       apply_with_radius="true"
       only_selected="true"
       hide_knots="false" />
    <inkscape:path-effect
       effect="perspective-envelope"
       up_left_point="-1.0715736e-07,20.313286"
       up_right_point="132.29156,10.01"
       down_left_point="-1.0715736e-07,54.203627"
       down_right_point="132.29156,54.203627"
       id="path-effect1770"
       is_visible="true"
       lpeversion="1"
       deform_type="perspective"
       horizontal_mirror="false"
       vertical_mirror="false"
       overflow_perspective="false" />
    <inkscape:path-effect
       effect="fillet_chamfer"
       id="path-effect443"
       is_visible="true"
       lpeversion="1"
       nodesatellites_param="F,1,0,1,0,0,0,1 @ F,1,0,1,0,0,0,1 @ F,1,0,1,0,0,0,1 @ F,1,0,1,0,0,0,1 @ F,1,0,1,0,0,0,1 @ F,1,1,1,0,0.11,0,1 @ F,1,1,1,0,0.11,0,1 @ F,1,0,1,0,0,0,1 @ F,1,1,1,0,0.11,0,1 @ F,1,1,1,0,0.11,0,1 @ F,1,0,1,0,0,0,1 @ F,1,1,1,0,0.11,0,1 @ F,1,1,1,0,0.11,0,1 @ F,1,0,1,0,0,0,1 @ F,1,0,1,0,0,0,1 @ F,1,0,1,0,0,0,1 @ F,1,0,1,0,0,0,1 @ F,1,0,1,0,0,0,1 @ F,1,0,1,0,0,0,1 @ F,1,1,1,0,0.11,0,1 @ F,1,1,1,0,0.11,0,1"
       unit="px"
       method="auto"
       mode="F"
       radius="11"
       chamfer_steps="1"
       flexible="true"
       use_knot_distance="true"
       apply_no_radius="true"
       apply_with_radius="true"
       only_selected="true"
       hide_knots="false" />
    <inkscape:path-effect
       effect="fillet_chamfer"
       id="path-effect441"
       is_visible="true"
       lpeversion="1"
       nodesatellites_param="F,1,0,1,0,0.029035622,0,1 @ F,1,0,1,0,0.12027072,0,1 @ F,1,0,1,0,0.067017839,0,1 @ F,1,0,1,0,0,0,1 @ F,1,0,1,0,0,0,1 @ F,1,0,1,0,0,0,1 @ F,1,0,1,0,0,0,1 @ F,1,0,1,0,0,0,1 @ F,1,0,1,0,0,0,1 @ F,1,0,1,0,0.09,0,1 @ F,1,0,1,0,0.071701047,0,1 @ F,1,0,1,0,0,0,1 @ F,1,0,1,0,0,0,1 @ F,1,0,1,0,0,0,1 @ F,1,0,1,0,0,0,1 @ F,1,0,1,0,0,0,1 @ F,1,0,1,0,0,0,1 @ F,1,0,1,0,0,0,1 @ F,1,0,1,0,0.09,0,1"
       unit="px"
       method="auto"
       mode="F"
       radius="9"
       chamfer_steps="1"
       flexible="true"
       use_knot_distance="true"
       apply_no_radius="true"
       apply_with_radius="true"
       only_selected="true"
       hide_knots="false" />
    <inkscape:path-effect
       effect="fillet_chamfer"
       id="path-effect439"
       is_visible="true"
       lpeversion="1"
       nodesatellites_param="F,1,0,1,0,0.04,0,1 @ F,1,0,1,0,0.10512075,0,1 @ F,1,0,1,0,0.04,0,1 @ F,1,0,1,0,0.23038547,0,1 @ F,1,0,1,0,0,0,1"
       unit="px"
       method="auto"
       mode="F"
       radius="4"
       chamfer_steps="1"
       flexible="true"
       use_knot_distance="true"
       apply_no_radius="true"
       apply_with_radius="true"
       only_selected="true"
       hide_knots="false" />
    <inkscape:path-effect
       effect="fillet_chamfer"
       id="path-effect425"
       is_visible="true"
       lpeversion="1"
       nodesatellites_param="F,1,0,1,0,0.032606904,0,1 @ F,1,0,1,0,0.09,0,1 @ F,1,0,1,0,0.31149591,0,1 @ F,1,0,1,0,0,0,1 @ F,1,0,1,0,0,0,1 @ F,1,0,1,0,0,0,1 @ F,1,0,1,0,0,0,1 @ F,1,0,1,0,0,0,1 @ F,1,0,1,0,0,0,1 @ F,1,0,1,0,0.09,0,1 @ F,1,0,1,0,0.054636986,0,1 @ F,1,0,1,0,0,0,1 @ F,1,0,1,0,0,0,1 @ F,1,0,1,0,0,0,1 @ F,1,0,1,0,0,0,1 @ F,1,0,1,0,0,0,1 @ F,1,0,1,0,0,0,1 @ F,1,0,1,0,0,0,1 @ F,1,0,1,0,0.09,0,1"
       unit="px"
       method="auto"
       mode="F"
       radius="9"
       chamfer_steps="1"
       flexible="true"
       use_knot_distance="true"
       apply_no_radius="true"
       apply_with_radius="true"
       only_selected="true"
       hide_knots="false" />
    <inkscape:path-effect
       effect="fillet_chamfer"
       id="path-effect423"
       is_visible="true"
       lpeversion="1"
       nodesatellites_param="F,1,0,1,0,0.031816036,0,1 @ F,1,0,1,0,0.11,0,1 @ F,1,0,1,0,0.050890586,0,1 @ F,1,0,1,0,0,0,1 @ F,1,0,1,0,0.11,0,1 @ F,1,0,1,0,0.080218756,0,1 @ F,1,0,1,0,0.075547252,0,1 @ F,1,0,1,0,0,0,1 @ F,1,0,1,0,0.11,0,1 @ F,1,0,1,0,0.076907641,0,1 @ F,1,0,1,0,0.30192402,0,1 @ F,1,0,1,0,0,0,1 @ F,1,0,1,0,0.11,0,1"
       unit="px"
       method="auto"
       mode="F"
       radius="11"
       chamfer_steps="1"
       flexible="true"
       use_knot_distance="true"
       apply_no_radius="true"
       apply_with_radius="true"
       only_selected="true"
       hide_knots="false" />
    <inkscape:path-effect
       effect="fillet_chamfer"
       id="path-effect421"
       is_visible="true"
       lpeversion="1"
       nodesatellites_param="F,1,0,1,0,0.029947093,0,1 @ F,1,0,1,0,0.072568635,0,1 @ F,1,0,1,0,0,0,1 @ F,1,0,1,0,0,0,1 @ F,1,0,1,0,0,0,1 @ F,1,0,1,0,0,0,1 @ F,1,0,1,0,0,0,1 @ F,1,0,1,0,0,0,1 @ F,1,0,1,0,0,0,1 @ F,1,0,1,0,0,0,1 @ F,1,0,1,0,0,0,1 @ F,1,0,1,0,0,0,1 @ F,1,0,1,0,0,0,1 @ F,1,0,1,0,0,0,1 @ F,1,0,1,0,0,0,1 | F,1,0,1,0,0,0,1 @ F,1,0,1,0,0,0,1 @ F,1,0,1,0,0,0,1 @ F,1,0,1,0,0,0,1 @ F,1,0,1,0,0,0,1 @ F,1,0,1,0,0,0,1 @ F,1,0,1,0,0,0,1 @ F,1,0,1,0,0,0,1 @ F,1,0,1,0,0,0,1 | F,1,0,1,0,0,0,1 @ F,1,0,1,0,0,0,1 @ F,1,0,1,0,0,0,1 @ F,1,0,1,0,0,0,1 @ F,1,0,1,0,0,0,1 @ F,1,0,1,0,0,0,1 @ F,1,0,1,0,0,0,1"
       unit="px"
       method="auto"
       mode="F"
       radius="6"
       chamfer_steps="1"
       flexible="true"
       use_knot_distance="true"
       apply_no_radius="true"
       apply_with_radius="true"
       only_selected="true"
       hide_knots="false" />
    <inkscape:path-effect
       effect="fillet_chamfer"
       id="path-effect419"
       is_visible="true"
       lpeversion="1"
       nodesatellites_param="F,1,0,1,0,0.04,0,1 @ F,1,0,1,0,0.10512075,0,1 @ F,1,0,1,0,0.04,0,1 @ F,1,0,1,0,0.23038547,0,1 @ F,1,0,1,0,0,0,1"
       unit="px"
       method="auto"
       mode="F"
       radius="4"
       chamfer_steps="1"
       flexible="true"
       use_knot_distance="true"
       apply_no_radius="true"
       apply_with_radius="true"
       only_selected="true"
       hide_knots="false" />
    <inkscape:path-effect
       effect="fillet_chamfer"
       id="path-effect417"
       is_visible="true"
       lpeversion="1"
       nodesatellites_param="F,1,0,1,0,0,0,1 @ F,1,0,1,0,0,0,1 @ F,1,0,1,0,0,0,1 @ F,1,0,1,0,0,0,1 @ F,1,0,1,0,0,0,1 @ F,1,0,1,0,0,0,1 @ F,1,0,1,0,0,0,1 @ F,1,0,1,0,0,0,1 @ F,1,0,1,0,0,0,1 @ F,1,0,1,0,0,0,1 @ F,1,0,1,0,0,0,1 @ F,1,0,1,0,0,0,1 @ F,1,0,1,0,0,0,1 @ F,1,0,1,0,0,0,1 @ F,1,0,1,0,0,0,1 @ F,1,0,1,0,0,0,1 @ F,1,0,1,0,0,0,1 @ F,1,0,1,0,0,0,1 @ F,1,0,1,0,0,0,1 @ F,1,0,1,0,0,0,1 @ F,1,0,1,0,0,0,1 @ F,1,0,1,0,0,0,1 @ F,1,0,1,0,0,0,1 @ F,1,0,1,0,0,0,1 @ F,1,0,1,0,0,0,1 @ F,1,0,1,0,0,0,1 @ F,1,0,1,0,0,0,1 @ F,1,0,1,0,0,0,1 @ F,1,0,1,0,0,0,1 @ F,1,0,1,0,0,0,1 @ F,1,0,1,0,0,0,1 @ F,1,0,1,0,0,0,1 @ F,1,0,1,0,0,0,1 @ F,1,0,1,0,0.16411495,0,1 @ F,1,0,1,0,0.33782529,0,1 @ F,1,0,1,0,0,0,1 @ F,1,0,1,0,0,0,1 @ F,1,0,1,0,0,0,1 @ F,1,0,1,0,0,0,1 @ F,1,0,1,0,0,0,1 @ F,1,0,1,0,0,0,1 @ F,1,0,1,0,0,0,1 @ F,1,0,1,0,0,0,1 @ F,1,0,1,0,0,0,1 @ F,1,0,1,0,0,0,1 @ F,1,0,1,0,0,0,1 @ F,1,0,1,0,0,0,1 @ F,1,0,1,0,0,0,1 @ F,1,0,1,0,0,0,1 @ F,1,0,1,0,0,0,1 @ F,1,0,1,0,0,0,1 @ F,1,0,1,0,0,0,1 @ F,1,0,1,0,0,0,1 @ F,1,0,1,0,0,0,1 | F,1,0,1,0,0,0,1 @ F,1,0,1,0,0,0,1 @ F,1,0,1,0,0,0,1 @ F,1,0,1,0,0,0,1 @ F,1,0,1,0,0,0,1 @ F,1,0,1,0,0,0,1 @ F,1,0,1,0,0,0,1 @ F,1,0,1,0,0,0,1 @ F,1,0,1,0,0,0,1 @ F,1,0,1,0,0,0,1 @ F,1,0,1,0,0,0,1 @ F,1,0,1,0,0,0,1"
       unit="px"
       method="auto"
       mode="F"
       radius="10"
       chamfer_steps="1"
       flexible="true"
       use_knot_distance="true"
       apply_no_radius="true"
       apply_with_radius="true"
       only_selected="true"
       hide_knots="false" />
  </defs>
  <g
     inkscape:label="Layer 1"
     inkscape:groupmode="layer"
     id="layer1">
    <path
       id="path1772"
       style="font-weight:900;font-size:33.3901px;line-height:1.25;font-family:Exo;-inkscape-font-specification:'Exo Heavy';fill:#8e8dbf;fill-opacity:1;stroke:none;stroke-width:0.266549;stroke-linecap:round;stroke-linejoin:round;stroke-dasharray:none;stroke-opacity:1;paint-order:stroke fill markers"
       d="M 38.050394,0 A 3.3056195,2.693469 0 0 0 34.745169,2.6936816 3.3056195,2.693469 0 0 0 38.050394,5.3868375 3.3056195,2.693469 0 0 0 41.356135,2.6936816 3.3056195,2.693469 0 0 0 38.050394,0 Z m 70.467526,0 a 3.3056195,2.693469 0 0 0 -3.30574,2.6936816 3.3056195,2.693469 0 0 0 3.30574,2.6931559 3.3056195,2.693469 0 0 0 3.30523,-2.6931559 A 3.3056195,2.693469 0 0 0 108.51792,0 Z M 64.955211,0.06713647 A 0.71254469,0.7231706 0 0 0 64.242593,0.79038148 V 25.101168 a 0.81056585,0.82265351 0 0 0 0.810803,0.82237 h 4.954219 a 0.71254469,0.7231706 0 0 0 0.712618,-0.722725 v -5.919175 h 1.235584 a 0.90446692,0.9179549 0 0 1 0.792199,0.475171 L 75.81863,25.4127 a 0.97279393,0.98730084 0 0 0 0.852144,0.510834 h 5.190381 a 0.4195516,0.42580822 0 0 0 0.366903,-0.631988 L 77.331716,16.333589 81.62241,8.3133838 A 0.43716616,0.44368546 0 0 0 81.237937,7.6583206 h -5.253943 a 0.86084921,0.87368673 0 0 0 -0.76326,0.4699258 l -2.374016,4.6268796 a 1.1534333,1.170634 0 0 1 -1.023193,0.629889 H 70.720233 V 0.74474897 A 0.66780199,0.67776067 0 0 0 70.052574,0.06713241 Z M 15.537556,0.10122739 A 0.77907512,0.79069318 0 0 0 14.758276,0.8916048 V 25.174069 a 0.73876073,0.74977759 0 0 0 0.738973,0.749469 h 5.155757 a 0.58299111,0.59168504 0 0 0 0.583427,-0.591603 V 14.30022 c 0.178081,-0.180736 0.400539,-0.350068 0.66766,-0.508212 0.26712,-0.158144 0.556523,-0.28253 0.868164,-0.372898 0.31164,-0.112961 0.611856,-0.169404 0.901237,-0.169404 0.311641,0 0.601043,0.04494 0.868164,0.135313 0.26712,0.09037 0.478766,0.2597 0.634586,0.508212 0.178081,0.248512 0.267167,0.599199 0.267167,1.051039 v 10.192033 a 0.77569003,0.7872576 0 0 0 0.775664,0.787231 h 5.119067 a 0.58299111,0.59168504 0 0 0 0.58291,-0.591603 V 14.063155 c 0,-1.378111 -0.166844,-2.564485 -0.500745,-3.558533 -0.3339,-1.0166393 -0.901893,-1.7958811 -1.703255,-2.33809 -0.801361,-0.5422069 -1.914171,-0.8134535 -3.338814,-0.8134535 -0.979442,0 -1.95888,0.2257754 -2.938322,0.6776156 -0.957182,0.4292481 -1.691502,0.892299 -2.203483,1.389323 V 0.72534283 A 0.61537636,0.62455324 0 0 0 20.620967,0.10122333 Z M 84.922983,0.74475303 A 0.7463068,0.75743619 0 0 0 84.176776,1.5026126 V 25.169874 a 0.74295273,0.75403211 0 0 0 0.74259,0.753664 h 10.042281 c 1.714023,0 3.149709,-0.225777 4.30723,-0.677616 1.157513,-0.474432 2.025723,-1.219703 2.604493,-2.236343 0.57875,-1.01664 0.86816,-2.349872 0.86816,-3.999088 0,-0.881089 -0.11123,-1.671829 -0.33383,-2.372181 -0.20034,-0.700352 -0.48974,-1.310262 -0.86816,-1.829878 -0.37843,-0.519616 -0.82386,-0.937722 -1.33584,-1.254009 -0.511973,-0.316288 -1.057311,-0.553563 -1.636072,-0.711706 0.756841,-0.180737 1.379937,-0.507902 1.869652,-0.982334 0.51199,-0.497023 0.89047,-1.106934 1.13533,-1.829878 0.26712,-0.7455363 0.40101,-1.6042193 0.40101,-2.5756754 0,-2.0784639 -0.59013,-3.7163898 -1.76992,-4.9137655 C 99.046185,1.3436885 97.132107,0.74475303 94.460902,0.74475303 Z M 4.4054201,2.5410601 A 0.66263074,0.6725123 0 0 0 3.7511965,3.1080136 L 3.0385785,7.6577959 H 0.33435086 A 0.33423488,0.3392192 0 0 0 4.3571844e-6,7.9971278 V 12.302507 A 0.56563561,0.57407072 0 0 0 0.56586127,12.876802 H 2.7714114 l -0.2005046,6.167776 c -0.04452,1.739583 0.1228407,3.117761 0.5012614,4.134401 0.4006808,0.994049 1.0572438,1.705348 1.9699056,2.134595 0.9349217,0.406656 2.1702906,0.60996 3.7062336,0.60996 H 12.076786 A 0.41136604,0.41750059 0 0 0 12.48813,25.506055 V 21.580393 A 0.58527038,0.5939983 0 0 0 11.962064,20.989838 L 10.183878,20.806799 C 9.9835381,20.784207 9.8058814,20.738737 9.6500611,20.670961 9.4942408,20.580592 9.3603522,20.467704 9.249052,20.332153 9.1600117,20.174008 9.0935842,19.993178 9.0490642,19.78985 9.0045443,19.56393 8.9818848,19.304183 8.9818848,19.010487 v -6.133685 h 3.2390782 a 0.40034727,0.4063175 0 0 0 0.400492,-0.406464 V 8.2320913 A 0.56562825,0.57406325 0 0 0 12.056115,7.6583206 H 8.9818848 V 3.103817 A 0.55460955,0.56288023 0 0 0 8.4273967,2.5410601 Z M 90.654416,6.641372 h 3.739307 c 0.356161,0 0.679036,0.1468589 0.968416,0.4405553 0.311641,0.2711035 0.467672,0.7905977 0.467672,1.5587262 0,0.5647999 -0.122559,1.0393497 -0.36742,1.4234135 -0.2226,0.384064 -0.578947,0.576393 -1.068668,0.576393 H 90.654416 Z M 55.761457,7.3530785 c -0.957182,0 -1.903148,0.2148022 -2.83807,0.6440493 -0.934922,0.4292482 -1.680572,0.9032743 -2.237073,1.4228893 V 8.2069164 A 0.54084568,0.54891111 0 0 0 50.145262,7.6583206 h -5.353678 a 0.58299705,0.59169107 0 0 0 -0.58291,0.5916027 V 25.32826 a 0.58683503,0.59558628 0 0 0 0.586527,0.595274 h 5.308203 a 0.58299111,0.59168504 0 0 0 0.58291,-0.591603 V 14.300216 c 0.200341,-0.203328 0.422799,-0.384159 0.66766,-0.542303 0.267121,-0.158145 0.556523,-0.28253 0.868164,-0.372898 0.311641,-0.09037 0.612373,-0.135313 0.901754,-0.135313 0.35616,0 0.656376,0.05644 0.901237,0.169404 0.26712,0.09037 0.478765,0.259699 0.634586,0.508211 0.15582,0.248513 0.233578,0.610174 0.233578,1.084606 v 10.315812 a 0.58743567,0.59619588 0 0 0 0.587561,0.595799 h 5.307169 a 0.58299111,0.59168504 0 0 0 0.58291,-0.591603 V 14.130812 c 0,-1.265152 -0.144701,-2.406055 -0.434082,-3.422695 C 60.647471,9.6688848 60.102138,8.8556709 59.300775,8.26828 58.499414,7.6582952 57.31966,7.3530785 55.761457,7.3530785 Z m 66.713753,0.3052421 c -1.86985,0 -3.3838,0.2367507 -4.54133,0.7111817 -1.13526,0.4518402 -1.96999,1.1296922 -2.50424,2.0333727 -0.53424,0.881088 -0.8015,1.977046 -0.8015,3.287382 0,0.700351 0.0891,1.366706 0.26717,1.999281 0.17808,0.632577 0.45666,1.220015 0.83509,1.762222 0.40068,0.542208 0.91254,1.016757 1.53582,1.423413 -0.91266,0.22592 -1.62483,0.677472 -2.13682,1.355233 -0.51198,0.677759 -0.76842,1.479998 -0.76842,2.40627 0,1.219969 0.54532,2.270456 1.63607,3.151544 0.0616,0.04751 0.12617,0.09306 0.19172,0.137936 -0.69978,0.347783 -1.28677,0.810135 -1.76062,1.387225 -0.53424,0.67776 -0.8015,1.479474 -0.8015,2.405747 v 0.372898 c 0,0.903681 0.25594,1.671948 0.76791,2.304524 0.53424,0.655169 1.24642,1.152191 2.13683,1.49107 0.89039,0.33888 1.88116,0.508212 2.97191,0.508212 h 5.64306 c 2.42635,0 4.19571,-0.542492 5.30872,-1.626908 1.13526,-1.084415 1.70326,-2.575482 1.70326,-4.47321 v -0.304717 c 0,-1.445887 -0.27859,-2.586791 -0.83509,-3.422696 -0.5565,-0.858496 -1.33562,-1.468406 -2.33733,-1.829877 -1.0017,-0.361472 -2.18145,-0.542303 -3.53932,-0.542303 h -4.34082 c -0.35616,0 -0.6677,-0.04547 -0.93482,-0.135838 -0.26712,-0.09037 -0.4005,-0.282172 -0.4005,-0.575869 0,-0.293696 0.13338,-0.496998 0.4005,-0.609959 0.26712,-0.135552 0.57866,-0.203494 0.93482,-0.203494 h 3.406 c 1.5582,0 2.81571,-0.225777 3.77289,-0.677617 0.95719,-0.474431 1.65855,-1.129811 2.10375,-1.965715 0.46746,-0.835905 0.70125,-1.81845 0.70125,-2.94805 0,-0.519615 -0.0335,-0.971693 -0.10025,-1.355756 -0.0445,-0.406656 -0.12228,-0.756819 -0.23358,-1.050515 -0.089,-0.316288 -0.2116,-0.58701 -0.36742,-0.812929 h 1.26039 a 0.64298625,0.65257486 0 0 0 0.64285,-0.652966 V 8.3474747 a 0.67950121,0.68963436 0 0 0 -0.67954,-0.6891541 z m -16.72508,0.2323399 c -0.27601,-0.00619 -0.47077,0.1842919 -0.47077,0.5118833 V 25.232806 a 0.68093438,0.6910889 0 0 0 0.68058,0.690728 h 5.07772 A 0.71931524,0.73004212 0 0 0 111.757,25.19347 V 8.4376832 c 0,-0.4224168 -0.31028,-0.6272495 -0.70693,-0.4998202 -0.80438,0.2584171 -1.66291,0.3922952 -2.53215,0.3928291 -0.88084,-5.958e-4 -1.75161,-0.1380322 -2.56522,-0.4033182 -0.0709,-0.02312 -0.13887,-0.035278 -0.20257,-0.036709 z m -70.467009,5.247e-4 c -0.276013,-0.00619 -0.471289,0.1837661 -0.471289,0.5113586 V 25.232806 a 0.68093438,0.6910889 0 0 0 0.681095,0.690728 h 5.077209 A 0.71931524,0.73004212 0 0 0 41.289472,25.19347 V 8.4376832 c 0,-0.4224168 -0.309765,-0.6272495 -0.706417,-0.4998202 -0.804379,0.2584171 -1.663426,0.3922942 -2.532661,0.3928291 -0.880845,-5.958e-4 -1.751086,-0.1380322 -2.564702,-0.4033182 -0.07089,-0.02312 -0.138876,-0.034751 -0.202571,-0.036192 z m 86.657749,4.6468098 h 1.83607 c 0.37842,0 0.67915,0.05644 0.90175,0.169403 0.2226,0.09037 0.37867,0.2597 0.46767,0.508213 0.0891,0.22592 0.13333,0.531137 0.13333,0.915201 0,0.384063 -0.0443,0.700255 -0.13333,0.948767 -0.089,0.248512 -0.24507,0.429343 -0.46767,0.542303 -0.2226,0.112961 -0.52333,0.169404 -0.90175,0.169404 h -1.83607 c -0.5565,0 -0.94632,-0.135885 -1.16892,-0.40699 -0.2226,-0.271103 -0.33383,-0.688685 -0.33383,-1.253484 0,-0.587393 0.11123,-0.993998 0.33383,-1.219919 0.2226,-0.248512 0.61242,-0.372898 1.16892,-0.372898 z m -31.286454,3.083887 h 4.106726 c 0.400681,0 0.734886,0.09042 1.002006,0.271151 0.267121,0.180737 0.467437,0.440484 0.600997,0.779364 0.155821,0.316287 0.233578,0.700422 0.233578,1.152262 0,0.451839 -0.07776,0.846947 -0.233578,1.185828 -0.13356,0.316288 -0.333876,0.56506 -0.600997,0.745797 -0.26712,0.180737 -0.601325,0.271151 -1.002006,0.271151 h -4.106726 z m 30.752124,11.453913 h 2.93832 c 0.3339,0 0.62331,0.04547 0.86817,0.135838 0.24486,0.09037 0.43383,0.21423 0.5674,0.372375 0.15583,0.180736 0.2341,0.407037 0.2341,0.67814 v 0.406465 c 0,0.384064 -0.15603,0.677782 -0.46767,0.881111 -0.31164,0.203327 -0.71228,0.305242 -1.202,0.305242 h -2.93832 c -0.57876,0 -1.00154,-0.135886 -1.26866,-0.40699 -0.24486,-0.248511 -0.36742,-0.553204 -0.36742,-0.914677 v -0.169403 c 0,-0.248512 0.0556,-0.474813 0.16692,-0.678141 0.1113,-0.180736 0.28947,-0.327596 0.53433,-0.440555 0.24486,-0.112961 0.55641,-0.169405 0.93483,-0.169405 z" />
  </g>
</svg>
